<svg xmlns="http://www.w3.org/2000/svg" xmlns:xlink="http://www.w3.org/1999/xlink" width="503px" height="503px" version="1.1"><defs/><g transform="translate(0.5,0.5)"><ellipse cx="251" cy="251" rx="250" ry="250" fill="#ffffff" stroke="#000000" pointer-events="none"/><rect x="201" y="11" width="80" height="20" fill="none" stroke="none" pointer-events="none"/><g fill="#000000" font-family="Helvetica" text-anchor="middle" font-size="12px"><text x="241" y="25">Numbers</text></g><rect x="31" y="205" width="145" height="145" fill="none" stroke="none" pointer-events="none"/><ellipse cx="104" cy="278" rx="72.5" ry="72.5" fill="#ffffff" stroke="#000000" pointer-events="none"/><rect x="69" y="231" width="70" height="30" fill="none" stroke="none" pointer-events="none"/><g fill="#000000" font-family="Helvetica" text-anchor="middle" font-size="12px"><text x="104" y="250">integers</text></g><rect x="69" y="278" width="80" height="50" fill="none" stroke="none" pointer-events="none"/><ellipse cx="109" cy="303" rx="25" ry="25" fill="#ffffff" stroke="#000000" pointer-events="none"/><rect x="69" y="283" width="80" height="40" fill="none" stroke="none" pointer-events="none"/><g fill="#000000" font-family="Helvetica" text-anchor="middle" font-size="12px"><text x="109" y="307">zero</text></g><rect x="191" y="111" width="297" height="301" fill="none" stroke="none" pointer-events="none"/><ellipse cx="340" cy="262" rx="148.5" ry="150.5" fill="#ffffff" stroke="#000000" pointer-events="none"/><rect x="291" y="121" width="80" height="40" fill="none" stroke="none" pointer-events="none"/><g fill="#000000" font-family="Helvetica" text-anchor="middle" font-size="12px"><text x="331" y="138">Real (float/double)</text></g><rect x="211" y="196" width="80" height="50" fill="none" stroke="none" pointer-events="none"/><ellipse cx="251" cy="221" rx="25" ry="25" fill="#ffffff" stroke="#000000" pointer-events="none"/><rect x="211" y="201" width="80" height="40" fill="none" stroke="none" pointer-events="none"/><g fill="#000000" font-family="Helvetica" text-anchor="middle" font-size="12px"><text x="251" y="218">neg. </text><text x="251" y="232">zero</text></g><rect x="371" y="186" width="80" height="50" fill="none" stroke="none" pointer-events="none"/><ellipse cx="411" cy="211" rx="25" ry="25" fill="#ffffff" stroke="#000000" pointer-events="none"/><rect x="371" y="191" width="80" height="40" fill="none" stroke="none" pointer-events="none"/><g fill="#000000" font-family="Helvetica" text-anchor="middle" font-size="12px"><text x="411" y="215">INF</text></g><rect x="386" y="263" width="80" height="50" fill="none" stroke="none" pointer-events="none"/><ellipse cx="426" cy="288" rx="25" ry="25" fill="#ffffff" stroke="#000000" pointer-events="none"/><rect x="386" y="268" width="80" height="40" fill="none" stroke="none" pointer-events="none"/><g fill="#000000" font-family="Helvetica" text-anchor="middle" font-size="12px"><text x="426" y="285">neg. </text><text x="426" y="299">INF</text></g><rect x="291" y="241" width="80" height="50" fill="none" stroke="none" pointer-events="none"/><ellipse cx="331" cy="266" rx="25" ry="25" fill="#ffffff" stroke="#000000" pointer-events="none"/><rect x="291" y="246" width="80" height="40" fill="none" stroke="none" pointer-events="none"/><g fill="#000000" font-family="Helvetica" text-anchor="middle" font-size="12px"><text x="331" y="270">zero</text></g><rect x="266" y="313" width="80" height="50" fill="none" stroke="none" pointer-events="none"/><ellipse cx="306" cy="338" rx="25" ry="25" fill="#ffffff" stroke="#000000" pointer-events="none"/><rect x="266" y="318" width="80" height="40" fill="none" stroke="none" pointer-events="none"/><g fill="#000000" font-family="Helvetica" text-anchor="middle" font-size="12px"><text x="306" y="342">NaN</text></g></g></svg>